<?xml version="1.0" encoding="UTF-8" standalone="no"?>
<!DOCTYPE svg PUBLIC "-//W3C//DTD SVG 1.1//EN"
 "http://www.w3.org/Graphics/SVG/1.1/DTD/svg11.dtd">
<!-- Generated by graphviz version 2.40.1 (20161225.0304)
 -->
<!-- Title: dependencies Pages: 1 -->
<svg width="1893pt" height="284pt"
 viewBox="0.00 0.00 1893.00 284.00" xmlns="http://www.w3.org/2000/svg" xmlns:xlink="http://www.w3.org/1999/xlink">
<g id="graph0" class="graph" transform="scale(1 1) rotate(0) translate(4 280)">
<title>dependencies</title>
<polygon fill="#ffffff" stroke="transparent" points="-4,4 -4,-280 1889,-280 1889,4 -4,4"/>
<text text-anchor="start" x="921.5091" y="-42.4" font-family="sans-serif" font-weight="bold" font-size="14.00" fill="#000000">Legend</text>
<polygon fill="#ffffb3" stroke="transparent" points="708.5,-10 708.5,-30 728.5,-30 728.5,-10 708.5,-10"/>
<text text-anchor="start" x="732.129" y="-15.4" font-family="sans-serif" font-size="14.00" fill="#000000"> &#160;Declarations</text>
<polygon fill="#8dd3c7" stroke="transparent" points="821.5,-10 821.5,-30 841.5,-30 841.5,-10 821.5,-10"/>
<text text-anchor="start" x="845.2251" y="-15.4" font-family="sans-serif" font-size="14.00" fill="#000000"> &#160;Module</text>
<polygon fill="#80b1d3" stroke="transparent" points="907.5,-10 907.5,-30 927.5,-30 927.5,-10 907.5,-10"/>
<text text-anchor="start" x="931.2812" y="-15.4" font-family="sans-serif" font-size="14.00" fill="#000000"> &#160;Bootstrap</text>
<polygon fill="#fdb462" stroke="transparent" points="1004.5,-10 1004.5,-30 1024.5,-30 1024.5,-10 1004.5,-10"/>
<text text-anchor="start" x="1028.1732" y="-15.4" font-family="sans-serif" font-size="14.00" fill="#000000"> &#160;Providers</text>
<polygon fill="#fb8072" stroke="transparent" points="1100.5,-10 1100.5,-30 1120.5,-30 1120.5,-10 1100.5,-10"/>
<text text-anchor="start" x="1124.2258" y="-15.4" font-family="sans-serif" font-size="14.00" fill="#000000"> &#160;Exports</text>
<g id="clust1" class="cluster">
<title>cluster_AppModule</title>
<polygon fill="none" stroke="#000000" stroke-dasharray="1,5" points="8,-70 8,-268 1877,-268 1877,-70 8,-70"/>
</g>
<g id="clust2" class="cluster">
<title>cluster_AppModule_declarations</title>
<polygon fill="none" stroke="#000000" points="1076,-78 1076,-130 1869,-130 1869,-78 1076,-78"/>
</g>
<g id="clust8" class="cluster">
<title>cluster_AppModule_imports</title>
<polygon fill="none" stroke="#000000" points="212,-78 212,-130 1068,-130 1068,-78 212,-78"/>
</g>
<g id="clust10" class="cluster">
<title>cluster_AppModule_bootstrap</title>
<polygon fill="none" stroke="#000000" points="885,-208 885,-260 1009,-260 1009,-208 885,-208"/>
</g>
<g id="clust11" class="cluster">
<title>cluster_AppModule_providers</title>
<polygon fill="none" stroke="#000000" points="16,-78 16,-130 204,-130 204,-78 16,-78"/>
</g>
<!-- AppComponent -->
<g id="node1" class="node">
<title>AppComponent</title>
<polygon fill="#ffffb3" stroke="#000000" points="1860.9399,-122 1755.0601,-122 1755.0601,-86 1860.9399,-86 1860.9399,-122"/>
<text text-anchor="middle" x="1808" y="-99.8" font-family="Times,serif" font-size="14.00" fill="#000000">AppComponent</text>
</g>
<!-- AppModule -->
<g id="node6" class="node">
<title>AppModule</title>
<polygon fill="#8dd3c7" stroke="#000000" points="988.6571,-187 985.6571,-191 964.6571,-191 961.6571,-187 905.3429,-187 905.3429,-151 988.6571,-151 988.6571,-187"/>
<text text-anchor="middle" x="947" y="-164.8" font-family="Times,serif" font-size="14.00" fill="#000000">AppModule</text>
</g>
<!-- AppComponent&#45;&gt;AppModule -->
<g id="edge1" class="edge">
<title>AppComponent&#45;&gt;AppModule</title>
<path fill="none" stroke="#000000" d="M1808,-122.2479C1808,-145.0179 1808,-181 1808,-181 1808,-181 998.8188,-181 998.8188,-181"/>
<polygon fill="#000000" stroke="#000000" points="998.8188,-177.5001 988.8188,-181 998.8188,-184.5001 998.8188,-177.5001"/>
</g>
<!-- ChatModalComponent -->
<g id="node2" class="node">
<title>ChatModalComponent</title>
<polygon fill="#ffffb3" stroke="#000000" points="1737.3244,-122 1592.6756,-122 1592.6756,-86 1737.3244,-86 1737.3244,-122"/>
<text text-anchor="middle" x="1665" y="-99.8" font-family="Times,serif" font-size="14.00" fill="#000000">ChatModalComponent</text>
</g>
<!-- ChatModalComponent&#45;&gt;AppModule -->
<g id="edge2" class="edge">
<title>ChatModalComponent&#45;&gt;AppModule</title>
<path fill="none" stroke="#000000" d="M1665,-122.2843C1665,-143.3211 1665,-175 1665,-175 1665,-175 998.7062,-175 998.7062,-175"/>
<polygon fill="#000000" stroke="#000000" points="998.7062,-171.5001 988.7062,-175 998.7061,-178.5001 998.7062,-171.5001"/>
</g>
<!-- ModalSidebarComponent -->
<g id="node3" class="node">
<title>ModalSidebarComponent</title>
<polygon fill="#ffffb3" stroke="#000000" points="1575.1456,-122 1414.8544,-122 1414.8544,-86 1575.1456,-86 1575.1456,-122"/>
<text text-anchor="middle" x="1495" y="-99.8" font-family="Times,serif" font-size="14.00" fill="#000000">ModalSidebarComponent</text>
</g>
<!-- ModalSidebarComponent&#45;&gt;AppModule -->
<g id="edge3" class="edge">
<title>ModalSidebarComponent&#45;&gt;AppModule</title>
<path fill="none" stroke="#000000" d="M1495,-122.1061C1495,-141.3391 1495,-169 1495,-169 1495,-169 999.0907,-169 999.0907,-169"/>
<polygon fill="#000000" stroke="#000000" points="999.0907,-165.5001 989.0907,-169 999.0907,-172.5001 999.0907,-165.5001"/>
</g>
<!-- ModalMainviewComponent -->
<g id="node4" class="node">
<title>ModalMainviewComponent</title>
<polygon fill="#ffffb3" stroke="#000000" points="1396.1442,-122 1221.8558,-122 1221.8558,-86 1396.1442,-86 1396.1442,-122"/>
<text text-anchor="middle" x="1309" y="-99.8" font-family="Times,serif" font-size="14.00" fill="#000000">ModalMainviewComponent</text>
</g>
<!-- ModalMainviewComponent&#45;&gt;AppModule -->
<g id="edge4" class="edge">
<title>ModalMainviewComponent&#45;&gt;AppModule</title>
<path fill="none" stroke="#000000" d="M1309,-122.0225C1309,-139.3734 1309,-163 1309,-163 1309,-163 998.8796,-163 998.8796,-163"/>
<polygon fill="#000000" stroke="#000000" points="998.8797,-159.5001 988.8796,-163 998.8796,-166.5001 998.8797,-159.5001"/>
</g>
<!-- AvatarComponent -->
<g id="node5" class="node">
<title>AvatarComponent</title>
<polygon fill="#ffffb3" stroke="#000000" points="1203.9201,-122 1084.0799,-122 1084.0799,-86 1203.9201,-86 1203.9201,-122"/>
<text text-anchor="middle" x="1144" y="-99.8" font-family="Times,serif" font-size="14.00" fill="#000000">AvatarComponent</text>
</g>
<!-- AvatarComponent&#45;&gt;AppModule -->
<g id="edge5" class="edge">
<title>AvatarComponent&#45;&gt;AppModule</title>
<path fill="none" stroke="#000000" d="M1144,-122.2396C1144,-137.5706 1144,-157 1144,-157 1144,-157 998.7786,-157 998.7786,-157"/>
<polygon fill="#000000" stroke="#000000" points="998.7787,-153.5001 988.7786,-157 998.7786,-160.5001 998.7787,-153.5001"/>
</g>
<!-- AppComponent  -->
<g id="node13" class="node">
<title>AppComponent </title>
<polygon fill="#80b1d3" stroke="#000000" points="1001.439,-252 892.561,-252 892.561,-216 1001.439,-216 1001.439,-252"/>
<text text-anchor="middle" x="947" y="-229.8" font-family="Times,serif" font-size="14.00" fill="#000000">AppComponent </text>
</g>
<!-- AppModule&#45;&gt;AppComponent  -->
<g id="edge12" class="edge">
<title>AppModule&#45;&gt;AppComponent </title>
<path fill="none" stroke="#000000" stroke-dasharray="1,5" d="M947,-187.1061C947,-187.1061 947,-205.991 947,-205.991"/>
<polygon fill="#000000" stroke="#000000" points="943.5001,-205.9909 947,-215.991 950.5001,-205.991 943.5001,-205.9909"/>
</g>
<!-- BrowserModule -->
<g id="node7" class="node">
<title>BrowserModule</title>
<polygon fill="#8dd3c7" stroke="#000000" points="1060.4734,-122 1057.4734,-126 1036.4734,-126 1033.4734,-122 953.5266,-122 953.5266,-86 1060.4734,-86 1060.4734,-122"/>
<text text-anchor="middle" x="1007" y="-99.8" font-family="Times,serif" font-size="14.00" fill="#000000">BrowserModule</text>
</g>
<!-- BrowserModule&#45;&gt;AppModule -->
<g id="edge6" class="edge">
<title>BrowserModule&#45;&gt;AppModule</title>
<path fill="none" stroke="#000000" d="M971.1708,-122.1061C971.1708,-122.1061 971.1708,-140.991 971.1708,-140.991"/>
<polygon fill="#000000" stroke="#000000" points="967.6708,-140.9909 971.1708,-150.991 974.6708,-140.991 967.6708,-140.9909"/>
</g>
<!-- FormsModule -->
<g id="node8" class="node">
<title>FormsModule</title>
<polygon fill="#8dd3c7" stroke="#000000" points="935.8288,-122 932.8288,-126 911.8288,-126 908.8288,-122 840.1712,-122 840.1712,-86 935.8288,-86 935.8288,-122"/>
<text text-anchor="middle" x="888" y="-99.8" font-family="Times,serif" font-size="14.00" fill="#000000">FormsModule</text>
</g>
<!-- FormsModule&#45;&gt;AppModule -->
<g id="edge7" class="edge">
<title>FormsModule&#45;&gt;AppModule</title>
<path fill="none" stroke="#000000" d="M920.418,-122.1061C920.418,-122.1061 920.418,-140.991 920.418,-140.991"/>
<polygon fill="#000000" stroke="#000000" points="916.918,-140.9909 920.418,-150.991 923.918,-140.991 916.918,-140.9909"/>
</g>
<!-- ReactiveFormsModule -->
<g id="node9" class="node">
<title>ReactiveFormsModule</title>
<polygon fill="#8dd3c7" stroke="#000000" points="822.3047,-122 819.3047,-126 798.3047,-126 795.3047,-122 677.6953,-122 677.6953,-86 822.3047,-86 822.3047,-122"/>
<text text-anchor="middle" x="750" y="-99.8" font-family="Times,serif" font-size="14.00" fill="#000000">ReactiveFormsModule</text>
</g>
<!-- ReactiveFormsModule&#45;&gt;AppModule -->
<g id="edge8" class="edge">
<title>ReactiveFormsModule&#45;&gt;AppModule</title>
<path fill="none" stroke="#000000" d="M750,-122.2396C750,-137.5706 750,-157 750,-157 750,-157 895.2214,-157 895.2214,-157"/>
<polygon fill="#000000" stroke="#000000" points="895.2214,-160.5001 905.2214,-157 895.2213,-153.5001 895.2214,-160.5001"/>
</g>
<!-- BrowserAnimationsModule -->
<g id="node10" class="node">
<title>BrowserAnimationsModule</title>
<polygon fill="#8dd3c7" stroke="#000000" points="660.3019,-122 657.3019,-126 636.3019,-126 633.3019,-122 487.6981,-122 487.6981,-86 660.3019,-86 660.3019,-122"/>
<text text-anchor="middle" x="574" y="-99.8" font-family="Times,serif" font-size="14.00" fill="#000000">BrowserAnimationsModule</text>
</g>
<!-- BrowserAnimationsModule&#45;&gt;AppModule -->
<g id="edge9" class="edge">
<title>BrowserAnimationsModule&#45;&gt;AppModule</title>
<path fill="none" stroke="#000000" d="M574,-122.0225C574,-139.3734 574,-163 574,-163 574,-163 895.2979,-163 895.2979,-163"/>
<polygon fill="#000000" stroke="#000000" points="895.2979,-166.5001 905.2979,-163 895.2979,-159.5001 895.2979,-166.5001"/>
</g>
<!-- MatButtonModule -->
<g id="node11" class="node">
<title>MatButtonModule</title>
<polygon fill="#8dd3c7" stroke="#000000" points="470.2176,-122 467.2176,-126 446.2176,-126 443.2176,-122 349.7824,-122 349.7824,-86 470.2176,-86 470.2176,-122"/>
<text text-anchor="middle" x="410" y="-99.8" font-family="Times,serif" font-size="14.00" fill="#000000">MatButtonModule</text>
</g>
<!-- MatButtonModule&#45;&gt;AppModule -->
<g id="edge10" class="edge">
<title>MatButtonModule&#45;&gt;AppModule</title>
<path fill="none" stroke="#000000" d="M410,-122.1061C410,-141.3391 410,-169 410,-169 410,-169 895.3094,-169 895.3094,-169"/>
<polygon fill="#000000" stroke="#000000" points="895.3094,-172.5001 905.3094,-169 895.3093,-165.5001 895.3094,-172.5001"/>
</g>
<!-- MatInputModule -->
<g id="node12" class="node">
<title>MatInputModule</title>
<polygon fill="#8dd3c7" stroke="#000000" points="331.6513,-122 328.6513,-126 307.6513,-126 304.6513,-122 220.3487,-122 220.3487,-86 331.6513,-86 331.6513,-122"/>
<text text-anchor="middle" x="276" y="-99.8" font-family="Times,serif" font-size="14.00" fill="#000000">MatInputModule</text>
</g>
<!-- MatInputModule&#45;&gt;AppModule -->
<g id="edge11" class="edge">
<title>MatInputModule&#45;&gt;AppModule</title>
<path fill="none" stroke="#000000" d="M276,-122.2843C276,-143.3211 276,-175 276,-175 276,-175 895.2795,-175 895.2795,-175"/>
<polygon fill="#000000" stroke="#000000" points="895.2795,-178.5001 905.2795,-175 895.2794,-171.5001 895.2795,-178.5001"/>
</g>
<!-- ChatRoomsService -->
<g id="node14" class="node">
<title>ChatRoomsService</title>
<ellipse fill="#fdb462" stroke="#000000" cx="110" cy="-104" rx="85.6918" ry="18"/>
<text text-anchor="middle" x="110" y="-99.8" font-family="Times,serif" font-size="14.00" fill="#000000">ChatRoomsService</text>
</g>
<!-- ChatRoomsService&#45;&gt;AppModule -->
<g id="edge13" class="edge">
<title>ChatRoomsService&#45;&gt;AppModule</title>
<path fill="none" stroke="#000000" d="M110,-122.2479C110,-145.0179 110,-181 110,-181 110,-181 895.2067,-181 895.2067,-181"/>
<polygon fill="#000000" stroke="#000000" points="895.2067,-184.5001 905.2067,-181 895.2066,-177.5001 895.2067,-184.5001"/>
</g>
</g>
</svg>
